<?xml version="1.0" encoding="utf-8"?>
<!-- Generator: Adobe Illustrator 24.1.0, SVG Export Plug-In . SVG Version: 6.00 Build 0)  -->
<svg version="1.1" id="Layer_1" xmlns="http://www.w3.org/2000/svg" xmlns:xlink="http://www.w3.org/1999/xlink" x="0px" y="0px"
	 viewBox="0 0 791 534" style="enable-background:new 0 0 791 534;" xml:space="preserve">
<style type="text/css">
	.st0{clip-path:url(#SVGID_2_);}
	.st1{fill:#1D1D1B;}
	.st2{opacity:5.000000e-02;}
	.st3{clip-path:url(#SVGID_4_);}
</style>
<g>
	<g>
		<defs>
			<rect id="SVGID_1_" x="-290.8" y="18.6" width="240.7" height="262.2"/>
		</defs>
		<clipPath id="SVGID_2_">
			<use xlink:href="#SVGID_1_"  style="overflow:visible;"/>
		</clipPath>
		<g class="st0">
			<path class="st1" d="M-122.4,45.5c-3.5,9.6-6.4,19.3-7.1,29.5c-1.7,27.3-4.2,54.4-8.4,81.4c-2.8,17.9-5.7,35.8-7.8,53.8
				c-0.7,6.1-2.9,11.9-5,17.6c-1.2,3.1-3.1,6.2-6.7,6.7c-4,0.5-6.5-2.2-8.5-5.4c-1.3-2.3-2.5-4.8-3.4-7.3
				c-4.3-11.8-6.8-24.1-7.4-36.6c-0.4-6.2-1-12.4-1.6-18.7c-0.2-1.7-0.5-3.3-1.1-4.9c-1.4,2.2-1.3,4.6-1.6,7
				c-1.2,14.5-2.3,29.1-4.4,43.5c-0.8,5.6-2.8,10.9-4.6,16.2c-0.3,0.8-0.6,1.6-1,2.4c-3.5,6.6-8.7,7.2-13.7,1.5
				c-3.6-4.2-5.7-9.1-7.4-14.3c-1.6-4.8-3-9.6-4.6-14.4c-0.3-0.9-0.2-2.7-1.6-2.4c-1.3,0.2-0.8,1.9-0.9,2.9
				c-1.1,8.1-2,16.3-3.2,24.4c-0.9,5-2.6,9.7-5,14.2c-3.9,7.6-12.6,8.1-17.6,1.2c-2.1-2.9-3.2-6.3-4.6-9.6c-0.4-1-0.7-2.3-2.1-2.3
				c-1.5,0-1.8,1.4-2.1,2.6c-1,3.7-1.8,7.4-2.8,11c-1,4-2.5,7.9-4.5,11.6c-2.6,4.9-6.9,7.1-12.1,7.9s-8.7-0.8-11.3-5.6
				c-2.7-5-5.2-10.3-5.7-15.8c-0.5-6.2,1.8-12.3,4.9-17.8c1-1.7,3.2-3.3,5.3-1.8c2.2,1.5,0.8,3.5-0.2,5.2c-4.4,7-6.1,14.4-2.7,22.4
				c2.8,6.5,9.4,7.8,14.7,3c2.1-1.8,3.7-4,4.7-6.5c4.1-10.7,7-21.8,6.6-33.3c-0.3-8.5-3.1-16.6-4.7-24.9c-2.1-11.3-6-22.3-7.1-33.8
				c-1.1-11.2-1.9-22.4-2.8-33.7c-0.8-11-0.8-22,0-33c0.1-2.9,0.7-5.8,1.9-8.6c2.5-5.6,7.1-6.4,11.3-1.9c2.8,3,4.9,6.5,6.1,10.4
				c4.3,13.8,6.7,28.2,7.3,42.6c0.8,26.7-1.6,53.1-5.6,79.4c-1.6,10.6,2.5,19.5,7.9,28c2.6,4.1,7.9,3.8,10.9-0.1
				c1.6-2,2.8-4.3,3.5-6.9c2.2-8.7,4.8-17.2,5.2-26.2c0.2-4.6,0.2-9.3,0.8-13.9c1-8.6-2.6-16.4-3.3-24.6
				c-1.7-18.9-5.2-37.6-5.7-56.6c-0.2-8.2-1.2-16.3-1.8-24.5s0.3-16.2,1-24.2c0.2-2.1,0.7-4.5,3-5c2.7-0.5,3.8,1.9,4.9,3.7
				c3.1,5,3.1,10.8,4,16.3c1.1,7.4,1.6,14.9,1.6,22.3c0.3,16.4,1.6,32.8,2.7,49.1c0.4,7.1-0.1,14.2-1.4,21.2
				c-1.4,7.1-1.3,14.4,0.2,21.5c2.6,11.4,5.8,22.6,11,33.1c1.7,3.4,4.1,5.5,8.1,5.1c3.7-0.3,5-3.2,6-6.1c2.9-8.4,3.2-17.3,4.1-26.1
				c0.9-9.1,2-18.3,3.4-27.3c0.3-1.8,0.4-3.6,0.5-5.5c0-18.4,0.3-36.8-0.2-55.2c-0.2-7.7,0-15.4-1-23.1c-0.1-0.6-0.1-1.2,0.1-1.8
				c0.5-1.8,0.9-4,3.2-3.9s2.5,2.4,2.5,4.2c0.1,7.1,0.4,14.2,0,21.3c-0.7,11.3,1.9,22.5,1.3,33.7c-0.6,11.6,2.5,22.6,3.9,33.8
				c1.7,13.4,3.2,26.8,6.7,39.8c1,3.8,2.2,7.6,4.4,10.9c3.3,4.9,7,4.6,9.7-0.6c1.9-3.8,2.4-7.9,3.2-12c6.1-34.1,10.1-68.6,13.9-103
				c1.3-11.6,1.9-23.2,2.6-34.8c0.6-9.7,3-19.3,4.6-29c1.2-7.9,3.1-15.6,5.9-23.1c0.5-1.3,0.6-3.5,2.4-3.2s1.6,2.5,1.6,4
				c0.2,18.2,1.8,36.4,1.5,54.7c-0.2,12.1,1.1,24.2,2.5,36.2c0.9,7.9,0.8,15.9,1.6,23.8c1.3,13.1,3.8,25.9,5.8,38.9
				c4.1,26,10.1,51.7,18.1,76.9c2.4,7.7,6,15,9,22.5c0.5,1.2,2.3,2.8,0.4,3.8c-2,1.1-3.2-0.6-4.1-2.5c-9.3-21-17-42.4-21.1-65.2
				c-4.4-24.5-8.8-48.9-12.1-73.6c-1.2-9-1.9-18-2.3-27.1c-0.6-16.3-3.2-32.5-2.5-48.8c0.2-4.4,0.5-8.8,0.8-13.2
				C-121.5,48.1-121.3,46.8-122.4,45.5 M-248.8,142.4c-0.2-7.5,0.4-14.9-0.7-22.4c-1.7-10.8-3.8-21.5-7.6-31.7c-0.8-2.2-1.8-5-5-4.6
				c-3.1,0.4-3.8,3.1-4.6,5.6c-0.2,0.6-0.3,1.2-0.3,1.8c-0.1,7.2-0.5,14.5-0.3,21.7c0.3,10.5,0.8,21,1.7,31.5
				c1.5,17.9,3.7,35.8,8.1,53.3c0.6,2.2,0.6,6,3.3,5.8c2.5-0.2,2.2-4.1,2.3-6.4C-250.9,178.8-248.3,160.7-248.8,142.4 M-221,165.7
				c0.8-1.2,1.2-2.7,1-4.2c0.4-25.2-0.6-50.4-3.1-75.5c-0.5-5.2-1.2-10.5-1.9-15.7c-0.1-0.8-0.2-2-1.2-2c-1.4,0-1,1.4-1.1,2.3
				c-0.5,5.5-1.1,11-1.4,16.5c-1.1,21.9,1.9,43.5,4.7,65.1C-223.6,156.8-222.5,161.4-221,165.7"/>
			<path class="st1" d="M-63.6,110.7c2.6,0.1,4.7,2.3,4.6,5c0,0.1,0,0.1,0,0.2c-0.1,3.4-3.5,7.2-6.3,7c-2.7-0.3-4.7-2.6-4.6-5.2
				C-69.8,114-66.6,110.6-63.6,110.7"/>
			<path class="st1" d="M-50.1,188.9c0.1,3.7-2.8,7.2-6,7.1c-3.1-0.1-4.2-2.2-4.4-4.9c-0.2-3.1,3-7.2,5.6-7.2
				C-52.2,184.1-50.1,186.2-50.1,188.9"/>
		</g>
	</g>
</g>
<g class="st2">
	<g>
		<defs>
			<rect id="SVGID_3_" x="140.2" y="18.6" width="441.9" height="481.4"/>
		</defs>
		<clipPath id="SVGID_4_">
			<use xlink:href="#SVGID_3_"  style="overflow:visible;"/>
		</clipPath>
		<g class="st3">
			<path class="st1" d="M449.4,68c-6.4,17.6-11.8,35.4-13,54.2c-3.1,50.1-7.7,99.9-15.4,149.5c-5.1,32.9-10.5,65.7-14.3,98.8
				c-1.3,11.2-5.3,21.8-9.2,32.3c-2.2,5.7-5.7,11.4-12.3,12.3c-7.3,0.9-11.9-4-15.6-9.9c-2.4-4.2-4.6-8.8-6.2-13.4
				c-7.9-21.7-12.5-44.2-13.6-67.2c-0.7-11.4-1.8-22.8-2.9-34.3c-0.4-3.1-0.9-6.1-2-9c-2.6,4-2.4,8.4-2.9,12.9
				c-2.2,26.6-4.2,53.4-8.1,79.9c-1.5,10.3-5.1,20-8.4,29.7c-0.6,1.5-1.1,2.9-1.8,4.4c-6.4,12.1-16,13.2-25.2,2.8
				c-6.6-7.7-10.5-16.7-13.6-26.3c-2.9-8.8-5.5-17.6-8.4-26.4c-0.6-1.7-0.4-5-2.9-4.4c-2.4,0.4-1.5,3.5-1.7,5.3
				c-2,14.9-3.7,29.9-5.9,44.8c-1.7,9.2-4.8,17.8-9.2,26.1c-7.2,14-23.1,14.9-32.3,2.2c-3.9-5.3-5.9-11.6-8.4-17.6
				c-0.7-1.8-1.3-4.2-3.9-4.2c-2.8,0-3.3,2.6-4,4.8c-1.8,6.8-3.3,13.6-5.1,20.2c-1.8,7.3-4.6,14.5-8.3,21.3
				c-4.8,9-12.7,13-22.2,14.5s-16-1.5-20.7-10.3c-5-9.2-9.5-18.9-10.5-29c-0.9-11.4,3.3-22.6,9-32.7c1.8-3.1,5.9-6.1,9.7-3.3
				s1.5,6.4-0.4,9.5c-8.1,12.9-11.2,26.4-5,41.1c5.1,11.9,17.3,14.3,27,5.5c3.9-3.3,6.8-7.3,8.6-11.9c7.5-19.6,12.9-40,11.9-61.1
				c-0.6-15.6-5.7-30.5-8.6-45.7c-3.9-20.7-11-40.9-13-62.1c-2-20.6-3.5-41.1-5.1-61.9c-1.5-20.2-1.5-40.4,0-60.6
				c0.2-5.3,1.3-10.6,3.3-15.8c4.6-10.3,13.2-11.8,20.7-3.5c5.1,5.5,9,11.9,11.2,19.1c7.9,25.3,12.3,51.8,13.4,78.2
				c1.5,49-3.1,97.5-10.5,145.8c-2.9,19.5,4.6,35.8,14.5,51.4c4.8,7.5,14.5,7,20-0.2c2.9-3.7,5.1-7.9,6.4-12.7
				c4-16,8.8-31.6,9.5-48.1c0.4-8.4,0.4-17.1,1.5-25.5c1.8-15.8-4.8-30.1-6.1-45.2c-3.1-34.7-9.5-69-10.5-103.9
				c-0.4-15.1-2.2-29.9-3.3-45c-1.1-15.1,0.6-29.7,1.8-44.4c0.4-3.9,1.3-8.3,5.5-9.2c5-0.9,7,3.5,9,6.8c5.7,9.2,5.7,19.8,7.3,29.9
				c2,13.6,2.9,27.4,2.9,40.9c0.6,30.1,2.9,60.2,5,90.1c0.7,13-0.2,26.1-2.6,38.9c-2.6,13-2.4,26.4,0.4,39.5
				c4.8,20.9,10.6,41.5,20.2,60.8c3.1,6.2,7.5,10.1,14.9,9.4c6.8-0.6,9.2-5.9,11-11.2c5.3-15.4,5.9-31.8,7.5-47.9
				c1.7-16.7,3.7-33.6,6.2-50.1c0.6-3.3,0.7-6.6,0.9-10.1c0-33.8,0.6-67.6-0.4-101.3c-0.4-14.1,0-28.3-1.8-42.4
				c-0.2-1.1-0.2-2.2,0.2-3.3c0.9-3.3,1.7-7.3,5.9-7.2c4.2,0.2,4.6,4.4,4.6,7.7c0.2,13,0.7,26.1,0,39.1c-1.3,20.7,3.5,41.3,2.4,61.9
				c-1.1,21.3,4.6,41.5,7.2,62.1c3.1,24.6,5.9,49.2,12.3,73.1c1.8,7,4,14,8.1,20c6.1,9,12.9,8.4,17.8-1.1c3.5-7,4.4-14.5,5.9-22
				c11.2-62.6,18.5-125.9,25.5-189.1c2.4-21.3,3.5-42.6,4.8-63.9c1.1-17.8,5.5-35.4,8.4-53.2c2.2-14.5,5.7-28.6,10.8-42.4
				c0.9-2.4,1.1-6.4,4.4-5.9c3.3,0.6,2.9,4.6,2.9,7.3c0.4,33.4,3.3,66.8,2.8,100.4c-0.4,22.2,2,44.4,4.6,66.5
				c1.7,14.5,1.5,29.2,2.9,43.7c2.4,24.1,7,47.6,10.6,71.4c7.5,47.7,18.5,94.9,33.2,141.2c4.4,14.1,11,27.5,16.5,41.3
				c0.9,2.2,4.2,5.1,0.7,7c-3.7,2-5.9-1.1-7.5-4.6c-17.1-38.6-31.2-77.8-38.7-119.7c-8.1-45-16.2-89.8-22.2-135.1
				c-2.2-16.5-3.5-33-4.2-49.8c-1.1-29.9-5.9-59.7-4.6-89.6c0.4-8.1,0.9-16.2,1.5-24.2C451,72.8,451.4,70.4,449.4,68 M217.3,245.9
				c-0.4-13.8,0.7-27.4-1.3-41.1c-3.1-19.8-7-39.5-14-58.2c-1.5-4-3.3-9.2-9.2-8.4c-5.9,0.7-7,5.7-8.4,10.3
				c-0.4,1.1-0.6,2.2-0.6,3.3c-0.2,13.2-0.9,26.6-0.6,39.8c0.6,19.3,1.5,38.6,3.1,57.8c2.8,32.9,6.8,65.7,15.1,97.9
				c1.1,4,1.1,11,6.1,10.6c4.6-0.4,4-7.5,4.2-11.8C213.6,312.7,218.2,279.5,217.3,245.9 M268.3,288.7c1.5-2.2,2.2-5,1.8-7.7
				c0.7-46.3-1.1-92.5-5.9-138.6c-0.9-9.5-2.2-19.3-3.5-28.8c-0.2-1.5-0.4-3.7-2.2-3.7c-2.6,0-1.8,2.6-2,4.2
				c-0.9,10.1-2,20.2-2.6,30.3c-2,40.2,3.5,79.9,8.6,119.5C263.6,272.3,265.6,280.8,268.3,288.7"/>
			<path class="st1" d="M557.3,187.7c4.8,0.2,8.6,4.2,8.4,9.2c0,0.2,0,0.2,0,0.4c-0.2,6.2-6.4,13.2-11.6,12.9
				c-5-0.6-8.6-4.8-8.4-9.5C545.9,193.8,551.8,187.5,557.3,187.7"/>
			<path class="st1" d="M582.1,331.3c0.2,6.8-5.1,13.2-11,13c-5.7-0.2-7.7-4-8.1-9c-0.4-5.7,5.5-13.2,10.3-13.2
				C578.3,322.5,582.1,326.3,582.1,331.3"/>
		</g>
	</g>
</g>
</svg>
